<?xml version="1.0" encoding="utf-8"?>
<!-- Generator: Adobe Illustrator 20.1.0, SVG Export Plug-In . SVG Version: 6.00 Build 0)  -->
<svg version="1.1" id="Calque_1" xmlns="http://www.w3.org/2000/svg" xmlns:xlink="http://www.w3.org/1999/xlink" x="0px" y="0px"
	 viewBox="0 0 1792 1792" style="enable-background:new 0 0 1792 1792;" xml:space="preserve">
<style type="text/css">
	.st0{fill:#FFFFFF;stroke:#000000;stroke-miterlimit:10;}
</style>
<path class="st0" d="M1385,1127l-50,50c-6.7,6.7-14.3,10-23,10s-16.3-3.3-23-10L896,784l-393,393c-6.7,6.7-14.3,10-23,10
	s-16.3-3.3-23-10l-50-50c-6.7-6.7-10-14.3-10-23s3.3-16.3,10-23l466-466c6.7-6.7,14.3-10,23-10s16.3,3.3,23,10l466,466
	c6.7,6.7,10,14.3,10,23S1391.7,1120.3,1385,1127z"/>
</svg>
