<?xml version="1.0" encoding="utf-8"?>
<!-- Generator: Adobe Illustrator 20.1.0, SVG Export Plug-In . SVG Version: 6.00 Build 0)  -->
<svg version="1.1" id="Layer_22" xmlns="http://www.w3.org/2000/svg" xmlns:xlink="http://www.w3.org/1999/xlink" x="0px" y="0px"
	 viewBox="0 0 16 16" style="enable-background:new 0 0 16 16;" xml:space="preserve">
<style type="text/css">
	.st0{fill:#4E96CE;}
</style>
<path id="XMLID_2219_" class="st0" d="M16,2c0-0.6-0.4-1-1-1h-1c-1.1,0-2,0.9-2,2v1H0v4c0,0.6,0.4,1,1,1h11v1H2v1c0,0.6,0.4,1,1,1h9
	c1.1,0,2-0.9,2-2V9V4V3h2V2z"/>
<path id="XMLID_2220_" class="st0" d="M6.5,16L6.5,16C7.3,16,8,15.3,8,14.5l0,0C8,13.7,7.3,13,6.5,13l0,0C5.7,13,5,13.7,5,14.5l0,0
	C5,15.3,5.7,16,6.5,16z"/>
<path id="XMLID_2221_" class="st0" d="M11.5,16L11.5,16c0.8,0,1.5-0.7,1.5-1.5l0,0c0-0.8-0.7-1.5-1.5-1.5l0,0
	c-0.8,0-1.5,0.7-1.5,1.5l0,0C10,15.3,10.7,16,11.5,16z"/>
</svg>
