<?xml version="1.0" encoding="utf-8"?>
<!-- Generator: Adobe Illustrator 20.1.0, SVG Export Plug-In . SVG Version: 6.00 Build 0)  -->
<svg version="1.1" id="Calque_1" xmlns="http://www.w3.org/2000/svg" xmlns:xlink="http://www.w3.org/1999/xlink" x="0px" y="0px"
	 viewBox="0 0 1792 1792" style="enable-background:new 0 0 1792 1792;" xml:space="preserve">
<style type="text/css">
	.st0{fill:#ffffff;stroke:#000000;stroke-miterlimit:10;}
</style>
<path class="st0" d="M893,2.1C399.9,2.1,0.1,401.9,0.1,895s399.8,892.9,892.9,892.9s892.9-399.8,892.9-892.9S1386.1,2.1,893,2.1z
	 M1196.1,509.7H1087c-39.8,0-66.7,8.3-80.6,25c-13.9,16.7-20.8,41.7-20.8,75v131.3h203.6l-27.1,205.6H985.6V1474H773V946.7H595.9
	V741.1H773V589.6c0-86.1,24.1-153,72.3-200.4c48.2-47.5,112.3-71.2,192.4-71.2c68.1,0,120.9,2.8,158.4,8.3V509.7z"/>
</svg>
