<?xml version="1.0" encoding="utf-8"?>
<!-- Generator: Adobe Illustrator 20.1.0, SVG Export Plug-In . SVG Version: 6.00 Build 0)  -->
<svg version="1.1" id="Calque_1" xmlns="http://www.w3.org/2000/svg" xmlns:xlink="http://www.w3.org/1999/xlink" x="0px" y="0px"
	 viewBox="0 0 1792 1792" style="enable-background:new 0 0 1792 1792;" xml:space="preserve">
<style type="text/css">
	.st0{fill:#ffffff;stroke:#000000;stroke-miterlimit:10;}
</style>
<path class="st0" d="M896,3.1C402.9,3.1,3.1,402.9,3.1,896s399.8,892.9,892.9,892.9s892.9-399.8,892.9-892.9S1389.1,3.1,896,3.1z
	 M1009.2,1117.6c-33.2,62-80.5,110.4-141.8,145.3c-61.4,34.9-131.7,52.3-211,52.3c-56.8,0-111.1-11.1-163-33.2
	c-51.9-22.1-96.5-51.9-133.8-89.2c-37.4-37.4-67.1-82-89.2-133.8c-22.1-51.9-33.2-106.2-33.2-163c0-56.8,11.1-111.1,33.2-163
	c22.1-51.9,51.9-96.5,89.2-133.8c37.4-37.4,82-67.1,133.8-89.2c51.9-22.1,106.2-33.2,163-33.2c109.1,0,202.7,36.6,280.8,109.8
	L823.4,695.8c-44.6-43.1-100.3-64.6-167-64.6c-46.9,0-90.3,11.8-130.1,35.5c-39.8,23.6-71.4,55.8-94.7,96.4
	c-23.3,40.6-34.9,84.9-34.9,133s11.6,92.4,34.9,133c23.3,40.6,54.8,72.7,94.7,96.4c39.8,23.6,83.2,35.5,130.1,35.5
	c31.6,0,60.7-4.4,87.2-13.2s48.3-19.7,65.5-32.9c17.2-13.2,32.1-28.1,44.9-44.9c12.8-16.8,22.1-32.6,28-47.5
	c5.9-14.9,10-29,12.3-42.3H656.4V835.9h395.8c4.6,24,6.9,47.3,6.9,69.8C1059,985,1042.4,1055.7,1009.2,1117.6z M1435.3,956.1v119.5
	h-120.1V956.1h-119.5V835.9h119.5V716.4h120.1v119.5h119.5v120.1H1435.3z"/>
</svg>
