<?xml version="1.0" encoding="utf-8"?>
<!-- Generator: Adobe Illustrator 20.1.0, SVG Export Plug-In . SVG Version: 6.00 Build 0)  -->
<svg version="1.1" id="Calque_1" xmlns="http://www.w3.org/2000/svg" xmlns:xlink="http://www.w3.org/1999/xlink" x="0px" y="0px"
	 viewBox="0 0 1792 1792" style="enable-background:new 0 0 1792 1792;" xml:space="preserve">
<style type="text/css">
	.st0{fill:#ffffff;stroke:#000000;stroke-miterlimit:10;}
</style>
<path class="st0" d="M893,2.1C399.9,2.1,0.1,401.9,0.1,895s399.8,892.9,892.9,892.9s892.9-399.8,892.9-892.9S1386.1,2.1,893,2.1z
	 M681.2,1252.3H481.4v-600h199.8V1252.3z M663.4,540.9c-20.8,19.8-48.1,29.7-82,29.7h-1.2c-33.1,0-59.7-9.9-79.9-29.7
	c-20.2-19.8-30.3-44.4-30.3-73.9c0-29.9,10.4-54.6,31.2-74.2s47.9-29.4,81.4-29.4c33.5,0,60.3,9.8,80.5,29.4
	c20.2,19.6,30.5,44.3,30.9,74.2C694.3,496.5,684.1,521.1,663.4,540.9z M1399.9,1252.3h-199.2V931.4c0-42.4-8.2-75.6-24.5-99.6
	c-16.3-24-41.9-36-76.6-36c-25.4,0-46.7,7-63.9,20.9c-17.2,13.9-30,31.2-38.4,51.8c-4.4,12.1-6.7,28.5-6.7,49v334.8H791.4
	c0.8-161,1.2-291.6,1.2-391.7s-0.2-159.8-0.6-179.2l-0.6-29.1h199.2v85.3c7.7-12.1,15.6-22.8,23.6-32c8.5-9.7,19.9-20.2,34.2-31.5
	c14.3-11.3,31.9-20.1,52.7-26.3c20.8-6.3,43.9-9.4,69.3-9.4c69,0,124.5,22.9,166.5,68.7c42,45.8,63,112.9,63,201.3V1252.3z"/>
</svg>
