<?xml version="1.0" encoding="utf-8"?>
<!-- Generator: Adobe Illustrator 20.1.0, SVG Export Plug-In . SVG Version: 6.00 Build 0)  -->
<svg version="1.1" id="Calque_1" xmlns="http://www.w3.org/2000/svg" xmlns:xlink="http://www.w3.org/1999/xlink" x="0px" y="0px"
	 viewBox="0 0 1792 1792" style="enable-background:new 0 0 1792 1792;" xml:space="preserve">
<style type="text/css">
	.st0{fill:#ffffff;stroke:#000000;stroke-miterlimit:10;}
</style>
<path class="st0" d="M893,2.1C399.9,2.1,0.1,401.9,0.1,895s399.8,892.9,892.9,892.9s892.9-399.8,892.9-892.9S1386.1,2.1,893,2.1z
	 M1309.8,683.8c0.4,6.2,0.7,15.4,0.7,27.8c0,57.3-8.4,114.5-25.1,171.5c-16.7,57.1-42.2,111.8-76.3,164.3
	c-34.2,52.4-74.8,98.8-122,139.1c-47.2,40.3-104,72.5-170.5,96.5c-66.5,24-137.7,36-213.5,36c-119.4,0-228.7-31.9-327.9-95.8
	c15.4,1.8,32.6,2.6,51.6,2.6c99.2,0,187.5-30.4,265.1-91.2c-46.3-0.9-87.7-15.1-124.3-42.6c-36.6-27.5-61.7-62.7-75.4-105.4
	c14.5,2.2,28,3.3,40.3,3.3c18.9,0,37.7-2.4,56.2-7.3c-49.4-10.1-90.2-34.7-122.6-73.7c-32.4-39-48.6-84.3-48.6-135.8v-2.6
	c30,16.7,62.1,25.8,96.5,27.1c-29.1-19.4-52.2-44.7-69.4-76c-17.2-31.3-25.8-65.2-25.8-101.8c0-38.8,9.7-74.7,29.1-107.7
	c53.3,65.7,118.2,118.2,194.7,157.6C719,709,800.8,731,888.1,735.4c-3.5-16.7-5.3-33.1-5.3-48.9c0-59,20.8-109.4,62.5-151
	c41.6-41.6,92-62.5,151-62.5c61.7,0,113.7,22.5,156,67.4c48-9.3,93.2-26.4,135.5-51.6c-16.3,50.7-47.6,89.9-93.9,117.7
	c41-4.4,82-15.4,122.9-33.1C1387.3,616.6,1351.7,653.4,1309.8,683.8z"/>
</svg>
