<?xml version="1.0" encoding="utf-8"?>
<!-- Generator: Adobe Illustrator 20.1.0, SVG Export Plug-In . SVG Version: 6.00 Build 0)  -->
<svg version="1.1" id="Calque_1" xmlns="http://www.w3.org/2000/svg" xmlns:xlink="http://www.w3.org/1999/xlink" x="0px" y="0px"
	 viewBox="0 0 73.7 73.6" style="enable-background:new 0 0 73.7 73.6;" xml:space="preserve">
<style type="text/css">
	.st0{opacity:0.1;fill:#FFFFFF;}
	.st1{fill:#FFFFFF;}
</style>
<path class="st0" d="M36.8,71.2c-19,0-34.3-15.4-34.3-34.4S17.9,2.4,36.9,2.5c19,0,34.3,15.4,34.3,34.3
	C71.2,55.8,55.8,71.1,36.8,71.2z"/>
<title>Fichier 1</title>
<g id="Calque_2">
	<g id="Calque_1-2">
		<path class="st1" d="M55.9,35.8l-27-18.4c-0.6-0.4-1.3-0.2-1.7,0.3c-0.1,0.2-0.2,0.4-0.2,0.7v36.8c0,0.7,0.6,1.2,1.2,1.2
			c0.2,0,0.5-0.1,0.7-0.2l27-18.4c0.6-0.4,0.7-1.2,0.3-1.7C56.1,36,56,35.9,55.9,35.8L55.9,35.8z M36.8,0C16.5,0,0,16.5,0.1,36.8
			s16.5,36.8,36.8,36.8s36.8-16.5,36.8-36.8C73.6,16.5,57.2,0,36.8,0z M36.8,71.2c-19,0-34.3-15.4-34.3-34.4S17.9,2.4,36.9,2.5
			c19,0,34.3,15.4,34.3,34.3C71.2,55.8,55.8,71.1,36.8,71.2z"/>
	</g>
</g>
</svg>
