<?xml version="1.0" encoding="utf-8"?>
<!-- Generator: Adobe Illustrator 20.1.0, SVG Export Plug-In . SVG Version: 6.00 Build 0)  -->
<svg version="1.1" id="Calque_1" xmlns="http://www.w3.org/2000/svg" xmlns:xlink="http://www.w3.org/1999/xlink" x="0px" y="0px"
	 viewBox="0 0 1792 1792" style="enable-background:new 0 0 1792 1792;" xml:space="preserve">
<style type="text/css">
	.st0{fill:#ffffff;stroke:#000000;stroke-miterlimit:10;}
</style>
<g>
	<path class="st0" d="M1093.5,865.9L807.9,687.3c-11.5-7.4-23.6-7.8-36.3-1.1c-12.3,6.7-18.4,17.1-18.4,31.2v357
		c0,14.1,6.1,24.5,18.4,31.2c6,3,11.7,4.5,17.3,4.5c7.4,0,13.8-1.9,19-5.6l285.6-178.5c11.2-6.3,16.7-16.4,16.7-30.1
		S1104.7,872.2,1093.5,865.9z"/>
	<path class="st0" d="M893,2.1C399.9,2.1,0.1,401.9,0.1,895s399.8,892.9,892.9,892.9s892.9-399.8,892.9-892.9S1386.1,2.1,893,2.1z
		 M1395.3,979.7c-0.4,20.1-2,45.5-4.7,76.2s-7,58.1-12.6,82.3c-6,27.2-18.8,50-38.5,68.6c-19.7,18.6-42.8,29.4-69.2,32.4
		c-82.6,9.3-207.3,13.9-374.3,13.9s-291.8-4.6-374.3-13.9c-26.4-3-49.6-13.8-69.5-32.4c-19.9-18.6-32.8-41.5-38.8-68.6
		c-5.2-24.2-9.2-51.6-12-82.3c-2.8-30.7-4.4-56.1-4.7-76.2c-0.4-20.1-0.6-48-0.6-83.7s0.2-63.6,0.6-83.7c0.4-20.1,2-45.5,4.7-76.2
		c2.8-30.7,7-58.1,12.6-82.3c6-27.2,18.8-50,38.5-68.6c19.7-18.6,42.8-29.4,69.2-32.4C604.2,543.6,729,539,896,539
		s291.8,4.6,374.3,13.9c26.4,3,49.6,13.8,69.5,32.4c19.9,18.6,32.8,41.5,38.8,68.6c5.2,24.2,9.2,51.6,12,82.3
		c2.8,30.7,4.4,56.1,4.7,76.2c0.4,20.1,0.6,48,0.6,83.7S1395.7,959.6,1395.3,979.7z"/>
</g>
</svg>
