<?xml version="1.0" encoding="utf-8"?>
<!-- Generator: Adobe Illustrator 20.1.0, SVG Export Plug-In . SVG Version: 6.00 Build 0)  -->
<svg version="1.1" id="Calque_1" xmlns="http://www.w3.org/2000/svg" xmlns:xlink="http://www.w3.org/1999/xlink" x="0px" y="0px"
	 viewBox="0 0 1792 1792" style="enable-background:new 0 0 1792 1792;" xml:space="preserve">
<style type="text/css">
	.st0{fill:#ffffff;stroke:#000000;stroke-miterlimit:10;}
</style>
<g>
	<polygon class="st0" points="474.3,983.7 544.6,983.7 544.6,1364.6 611.5,1364.6 611.5,983.7 683.1,983.7 683.1,920.8 474.3,920.8 
			"/>
	<path class="st0" d="M1037.9,1029.9c-22.3,0-43.1,12-62.3,36.1V920.8h-59.6v443.8h59.6v-32.1c20.1,24.5,40.8,36.8,62.3,36.8
		c24.1,0,39.9-12.3,47.5-36.8c4-12,6-34.4,6-66.9v-131.9c0-32.6-2-54.7-6-66.3C1077.8,1042.4,1062,1029.9,1037.9,1029.9z
		 M1031.9,1270.2c0,29.9-8.7,44.8-26.1,44.8c-10.3,0-20.3-4.9-30.1-14.7v-201.5c9.8-9.8,19.9-14.7,30.1-14.7
		c17.4,0,26.1,14.9,26.1,44.8V1270.2z"/>
	<path class="st0" d="M881.9,694.5c19.2,0,28.8-15.6,28.8-46.9V507.1c0-30.8-9.6-46.2-28.8-46.2c-19.2,0-28.8,15.4-28.8,46.2v140.6
		C853.2,678.9,862.8,694.5,881.9,694.5z"/>
	<path class="st0" d="M804.3,1286.9c-13.4,18.7-26.1,28.1-38.2,28.1c-8,0-12.7-4.7-14.1-14.1c-0.4-1.3-0.7-9.1-0.7-23.4v-243.6
		h-59.6v261.7c0,21.9,1.8,38.2,5.4,48.9c5.4,16.5,18.3,24.8,38.8,24.8c21.4,0,44.2-13.6,68.3-40.8v36.1h59.6v-330.7h-59.6V1286.9z"
		/>
	<path class="st0" d="M893,2.1C399.9,2.1,0.1,401.9,0.1,895s399.8,892.9,892.9,892.9s892.9-399.8,892.9-892.9S1386.1,2.1,893,2.1z
		 M1021.2,410.7h60.9v245.7c0,14.7,0.2,22.5,0.7,23.4c1.3,9.8,6,14.7,14.1,14.7c12,0,24.8-9.6,38.2-28.8v-255h60.9v334H1135v-36.8
		c-23.7,27.7-46.6,41.5-68.9,41.5c-20.5,0-33.7-8.3-39.5-24.8c-3.6-10.7-5.4-27.4-5.4-50.2V410.7z M792.9,519.1
		c0-35.7,6.2-61.8,18.7-78.3c17-22.8,40.4-34.1,70.3-34.1c30.8,0,54.4,11.4,71,34.1c12.5,16.5,18.7,42.6,18.7,78.3v117.1
		c0,36.1-6.2,62.5-18.7,79c-16.5,22.8-40.2,34.1-71,34.1c-29.9,0-53.3-11.4-70.3-34.1c-12.5-17-18.7-43.3-18.7-79V519.1z
		 M630.9,296.2l47.5,176l45.5-176h68.3l-81,267.1v181.4h-66.9V563.3c-6.2-33-19.9-80.3-40.8-141.9c-16.5-46-31-87.7-43.5-125.2
		H630.9z M1374.6,1384.6c-6.2,26.3-19.2,48.4-38.8,66.3c-19.6,17.8-42.4,28.1-68.3,30.8c-82.1,9.4-205.9,14.1-371.5,14.1
		s-289.4-4.7-371.5-14.1c-25.9-2.7-48.8-12.9-68.6-30.8s-32.7-39.9-38.5-66.3c-11.6-50-17.4-128.1-17.4-234.3
		c0-104.4,5.8-182.5,17.4-234.3c6.2-26.3,19.2-48.4,38.8-66.3c19.6-17.8,42.6-28.3,68.9-31.5C606.8,809.4,730.4,805,896,805
		s289.4,4.5,371.5,13.4c25.9,3.1,48.8,13.6,68.6,31.5c19.9,17.8,32.7,39.9,38.5,66.3c11.6,50,17.4,128.1,17.4,234.3
		C1392,1254.8,1386.2,1332.9,1374.6,1384.6z"/>
	<path class="st0" d="M1228.7,1029.9c-30.3,0-54.2,11.4-71.6,34.1c-12.5,16.5-18.7,42.4-18.7,77.6v115.8c0,35.3,6.5,61.1,19.4,77.6
		c17.4,22.8,41.5,34.1,72.3,34.1c32.1,0,56.2-11.8,72.3-35.5c8-12,12.7-24.1,14.1-36.1c0.9-4,1.3-17,1.3-38.8v-8.7h-60.9
		c0,22.8-0.4,36.4-1.3,40.8c-3.1,16.1-12,24.1-26.8,24.1c-20.5,0-30.8-15.4-30.8-46.2v-58.2h119.8v-68.9c0-35.3-6-61.1-18.1-77.6
		C1282.2,1041.3,1258.6,1029.9,1228.7,1029.9z M1258.1,1160.4h-60.2v-30.8c0-30.3,10-45.5,30.1-45.5c20.1,0,30.1,15.2,30.1,45.5
		V1160.4z"/>
</g>
</svg>
