<svg id="Calque_1" data-name="Calque 1" xmlns="http://www.w3.org/2000/svg" viewBox="0 0 355.83 45.91"><title>logo</title><g id="Calque_2" data-name="Calque 2"><g id="Calque_1-2" data-name="Calque 1-2"><g style="isolation:isolate"><g style="isolation:isolate"><path d="M4.81,9H17L28.32,40h.19L39.74,9H52V52.69H44.24V17.58h-.12L30.85,52.69H25.42L12.34,17.58h-.12V52.69H4.81Z" transform="translate(-4.81 -7.89)" style="fill:#60a1d5"/><path d="M61.58,9H90.52v6.79H69.35V26.9H89.41v6.54H69.35V45.78H91.63v6.91H61.58Z" transform="translate(-4.81 -7.89)" style="fill:#60a1d5"/><path d="M99.21,9H114.7c11.42,0,24.13,5.43,24.13,21.84,0,15.3-12.71,21.84-24.13,21.84H99.21Zm14.25,36.9c8,0,17-3.27,17-15.06,0-12.53-9-15.18-17-15.18H107V45.9Z" transform="translate(-4.81 -7.89)" style="fill:#60a1d5"/><path d="M146.35,9h7.77V52.69h-7.77Z" transform="translate(-4.81 -7.89)" style="fill:#60a1d5"/></g><g style="isolation:isolate"><path d="M163.75,9h12.16l11.35,31h.18L198.68,9H210.9V52.69h-7.71V17.58h-.12L189.79,52.69h-5.43L171.28,17.58h-.12V52.69h-7.4Z" transform="translate(-4.81 -7.89)" style="fill:#f9ac46"/><path d="M241.81,7.89c13.64,0,23.57,8.82,23.57,22.83,0,13.64-9.93,23.08-23.57,23.08-13.45,0-23.39-9.44-23.39-23.08C218.42,16.72,228.35,7.89,241.81,7.89Zm.06,38.94c8.95,0,15.06-6.79,15.06-16.11,0-9-6-16-15.06-16s-15,7-15,16C226.87,40,233,46.83,241.87,46.83Z" transform="translate(-4.81 -7.89)" style="fill:#f9ac46"/></g><g style="isolation:isolate"><path d="M294.19,7.89c13.64,0,23.57,8.82,23.57,22.83,0,13.64-9.93,23.08-23.57,23.08-13.45,0-23.39-9.44-23.39-23.08C270.8,16.72,280.74,7.89,294.19,7.89Zm.06,38.94c8.95,0,15.06-6.79,15.06-16.11,0-9-6-16-15.06-16s-15,7-15,16C279.26,40,285.37,46.83,294.25,46.83Z" transform="translate(-4.81 -7.89)" style="fill:#f9ac46"/></g><g style="isolation:isolate"><path d="M319.11,9h8.7l12,33.63h.25L352.25,9h8.39L343.12,52.69h-6.73Z" transform="translate(-4.81 -7.89)" style="fill:#f9ac46"/></g></g></g></g></svg>